<?xml version="1.0" encoding="UTF-8" standalone="no"?>
<!DOCTYPE svg PUBLIC "-//W3C//DTD SVG 1.1//EN"
 "http://www.w3.org/Graphics/SVG/1.1/DTD/svg11.dtd">
<!-- Generated by graphviz version 14.1.2 (20260124.0452)
 -->
<!-- Title: __SampleClass_u002E_SimulatedWork Pages: 1 -->
<svg width="794pt" height="804pt"
 viewBox="0.00 0.00 794.00 804.00" xmlns="http://www.w3.org/2000/svg" xmlns:xlink="http://www.w3.org/1999/xlink">
<g id="graph0" class="graph" transform="scale(1 1) rotate(0) translate(4 799.5)">
<title>__SampleClass_u002E_SimulatedWork</title>
<polygon fill="white" stroke="none" points="-4,4 -4,-799.5 789.5,-799.5 789.5,4 -4,4"/>
<text xml:space="preserve" text-anchor="middle" x="392.75" y="-7.2" font-family="Monospace" font-size="14.00">SampleClass.SimulatedWork</text>
<!-- ___u0023__u003C_start_u003E_ -->
<g id="node1" class="node">
<title>___u0023__u003C_start_u003E_</title>
<polygon fill="none" stroke="black" points="279.75,-795.5 197.75,-795.5 197.75,-759.5 279.75,-759.5 279.75,-795.5"/>
<text xml:space="preserve" text-anchor="middle" x="238.75" y="-772.45" font-family="Monospace" font-size="14.00">#&lt;start&gt;</text>
</g>
<!-- __EvenSeed -->
<g id="node3" class="node">
<title>__EvenSeed</title>
<polygon fill="none" stroke="black" points="218.75,-690.5 136.75,-690.5 136.75,-654.5 218.75,-654.5 218.75,-690.5"/>
<text xml:space="preserve" text-anchor="middle" x="177.75" y="-667.45" font-family="Monospace" font-size="14.00">EvenSeed</text>
</g>
<!-- ___u0023__u003C_start_u003E_&#45;&gt;__EvenSeed -->
<g id="edge8" class="edge">
<title>___u0023__u003C_start_u003E_&#45;&gt;__EvenSeed</title>
<path fill="none" stroke="black" d="M198.24,-759.09C191.42,-754.36 185.2,-748.55 181,-741.5 174.06,-729.84 172.69,-714.95 173.29,-702.08"/>
<polygon fill="black" stroke="black" points="176.75,-702.77 174.16,-692.49 169.77,-702.14 176.75,-702.77"/>
<text xml:space="preserve" text-anchor="middle" x="226.38" y="-728.2" font-family="Monospace" font-size="14.00">100 times</text>
<text xml:space="preserve" text-anchor="middle" x="226.38" y="-711.7" font-family="Monospace" font-size="14.00">0.0068 msec</text>
</g>
<!-- __OddSeed -->
<g id="node4" class="node">
<title>__OddSeed</title>
<polygon fill="none" stroke="black" points="335.62,-690.5 261.88,-690.5 261.88,-654.5 335.62,-654.5 335.62,-690.5"/>
<text xml:space="preserve" text-anchor="middle" x="298.75" y="-667.45" font-family="Monospace" font-size="14.00">OddSeed</text>
</g>
<!-- ___u0023__u003C_start_u003E_&#45;&gt;__OddSeed -->
<g id="edge7" class="edge">
<title>___u0023__u003C_start_u003E_&#45;&gt;__OddSeed</title>
<path fill="none" stroke="black" d="M260.6,-759.17C266.13,-753.95 271.65,-747.9 275.75,-741.5 283.47,-729.45 288.89,-714.52 292.52,-701.73"/>
<polygon fill="black" stroke="black" points="295.88,-702.75 294.99,-692.19 289.1,-700.99 295.88,-702.75"/>
<text xml:space="preserve" text-anchor="middle" x="335.53" y="-728.2" font-family="Monospace" font-size="14.00">100 times</text>
<text xml:space="preserve" text-anchor="middle" x="335.53" y="-711.7" font-family="Monospace" font-size="14.00">0.0009 msec</text>
</g>
<!-- __LoopBegin -->
<g id="node2" class="node">
<title>__LoopBegin</title>
<polygon fill="none" stroke="black" points="344.88,-585.5 254.62,-585.5 254.62,-549.5 344.88,-549.5 344.88,-585.5"/>
<text xml:space="preserve" text-anchor="middle" x="299.75" y="-562.45" font-family="Monospace" font-size="14.00">LoopBegin</text>
</g>
<!-- __DivisibleBy3 -->
<g id="node5" class="node">
<title>__DivisibleBy3</title>
<polygon fill="none" stroke="black" points="473.25,-480.5 358.25,-480.5 358.25,-444.5 473.25,-444.5 473.25,-480.5"/>
<text xml:space="preserve" text-anchor="middle" x="415.75" y="-457.45" font-family="Monospace" font-size="14.00">DivisibleBy3</text>
</g>
<!-- __LoopBegin&#45;&gt;__DivisibleBy3 -->
<g id="edge12" class="edge">
<title>__LoopBegin&#45;&gt;__DivisibleBy3</title>
<path fill="none" stroke="black" d="M319.43,-549.03C338.21,-532.35 366.68,-507.07 387.81,-488.31"/>
<polygon fill="black" stroke="black" points="390.08,-490.98 395.23,-481.72 385.43,-485.74 390.08,-490.98"/>
<text xml:space="preserve" text-anchor="middle" x="420.29" y="-518.2" font-family="Monospace" font-size="14.00">6633 times</text>
<text xml:space="preserve" text-anchor="middle" x="420.29" y="-501.7" font-family="Monospace" font-size="14.00">0.0002 msec</text>
</g>
<!-- __DivisibleBy5 -->
<g id="node6" class="node">
<title>__DivisibleBy5</title>
<polygon fill="none" stroke="black" points="307.25,-375.5 192.25,-375.5 192.25,-339.5 307.25,-339.5 307.25,-375.5"/>
<text xml:space="preserve" text-anchor="middle" x="249.75" y="-352.45" font-family="Monospace" font-size="14.00">DivisibleBy5</text>
</g>
<!-- __LoopBegin&#45;&gt;__DivisibleBy5 -->
<g id="edge1" class="edge">
<title>__LoopBegin&#45;&gt;__DivisibleBy5</title>
<path fill="none" stroke="black" d="M289.16,-549.11C279.47,-532.24 265.65,-505.57 259,-480.5 250.72,-449.27 249.02,-412.08 248.99,-387.04"/>
<polygon fill="black" stroke="black" points="252.49,-387.35 249.08,-377.31 245.49,-387.28 252.49,-387.35"/>
<text xml:space="preserve" text-anchor="middle" x="304.38" y="-465.7" font-family="Monospace" font-size="14.00">2535 times</text>
<text xml:space="preserve" text-anchor="middle" x="304.38" y="-449.2" font-family="Monospace" font-size="14.00">0.0003 msec</text>
</g>
<!-- __DivisibleBy7 -->
<g id="node7" class="node">
<title>__DivisibleBy7</title>
<polygon fill="none" stroke="black" points="413.25,-270.5 298.25,-270.5 298.25,-234.5 413.25,-234.5 413.25,-270.5"/>
<text xml:space="preserve" text-anchor="middle" x="355.75" y="-247.45" font-family="Monospace" font-size="14.00">DivisibleBy7</text>
</g>
<!-- __LoopBegin&#45;&gt;__DivisibleBy7 -->
<g id="edge3" class="edge">
<title>__LoopBegin&#45;&gt;__DivisibleBy7</title>
<path fill="none" stroke="black" d="M266.31,-549.1C218.1,-521.35 136.64,-463.04 154,-393.5 168.52,-335.31 186.55,-318.02 238.75,-288.5 243.61,-285.75 264.27,-279.34 286.92,-272.75"/>
<polygon fill="black" stroke="black" points="287.68,-276.17 296.31,-270.03 285.73,-269.44 287.68,-276.17"/>
<text xml:space="preserve" text-anchor="middle" x="199.38" y="-413.2" font-family="Monospace" font-size="14.00">1477 times</text>
<text xml:space="preserve" text-anchor="middle" x="199.38" y="-396.7" font-family="Monospace" font-size="14.00">0.0003 msec</text>
</g>
<!-- __LoopEnd -->
<g id="node8" class="node">
<title>__LoopEnd</title>
<polygon fill="none" stroke="black" points="445.62,-165.5 371.88,-165.5 371.88,-129.5 445.62,-129.5 445.62,-165.5"/>
<text xml:space="preserve" text-anchor="middle" x="408.75" y="-142.45" font-family="Monospace" font-size="14.00">LoopEnd</text>
</g>
<!-- __LoopBegin&#45;&gt;__LoopEnd -->
<g id="edge4" class="edge">
<title>__LoopBegin&#45;&gt;__LoopEnd</title>
<path fill="none" stroke="black" d="M345.06,-564.24C448.82,-557.83 694.75,-535.08 694.75,-463.5 694.75,-463.5 694.75,-463.5 694.75,-251.5 694.75,-201.54 538.29,-169.14 456.82,-155.65"/>
<polygon fill="black" stroke="black" points="457.77,-152.26 447.34,-154.12 456.65,-159.17 457.77,-152.26"/>
<text xml:space="preserve" text-anchor="middle" x="740.12" y="-360.7" font-family="Monospace" font-size="14.00">9255 times</text>
<text xml:space="preserve" text-anchor="middle" x="740.12" y="-344.2" font-family="Monospace" font-size="14.00">0.0004 msec</text>
</g>
<!-- __EvenSeed&#45;&gt;__LoopBegin -->
<g id="edge5" class="edge">
<title>__EvenSeed&#45;&gt;__LoopBegin</title>
<path fill="none" stroke="black" d="M177.92,-654.26C178.99,-639.05 182.9,-617.23 195.75,-603.5 208.31,-590.08 226.18,-581.81 243.56,-576.7"/>
<polygon fill="black" stroke="black" points="244.01,-580.2 252.81,-574.3 242.25,-573.43 244.01,-580.2"/>
<text xml:space="preserve" text-anchor="middle" x="245.25" y="-623.2" font-family="Monospace" font-size="14.00">99 times</text>
<text xml:space="preserve" text-anchor="middle" x="245.25" y="-606.7" font-family="Monospace" font-size="14.00">15.2253 msec</text>
</g>
<!-- ___u0023__u003C_end_u003E_ -->
<g id="node9" class="node">
<title>___u0023__u003C_end_u003E_</title>
<polygon fill="none" stroke="black" points="65.5,-60.5 0,-60.5 0,-24.5 65.5,-24.5 65.5,-60.5"/>
<text xml:space="preserve" text-anchor="middle" x="32.75" y="-37.45" font-family="Monospace" font-size="14.00">#&lt;end&gt;</text>
</g>
<!-- __EvenSeed&#45;&gt;___u0023__u003C_end_u003E_ -->
<g id="edge17" class="edge">
<title>__EvenSeed&#45;&gt;___u0023__u003C_end_u003E_</title>
<path fill="none" stroke="black" d="M136.29,-663.74C88.59,-652.14 16.75,-625.24 16.75,-568.5 16.75,-568.5 16.75,-568.5 16.75,-146.5 16.75,-121.09 21.57,-92.56 25.91,-71.98"/>
<polygon fill="black" stroke="black" points="29.3,-72.87 28.05,-62.35 22.47,-71.35 29.3,-72.87"/>
<text xml:space="preserve" text-anchor="middle" x="66.25" y="-360.7" font-family="Monospace" font-size="14.00">1 times</text>
<text xml:space="preserve" text-anchor="middle" x="66.25" y="-344.2" font-family="Monospace" font-size="14.00">23.2597 msec</text>
</g>
<!-- __OddSeed&#45;&gt;__LoopBegin -->
<g id="edge6" class="edge">
<title>__OddSeed&#45;&gt;__LoopBegin</title>
<path fill="none" stroke="black" d="M298.92,-654.03C299.07,-638.47 299.29,-615.42 299.47,-597.16"/>
<polygon fill="black" stroke="black" points="302.97,-597.26 299.57,-587.23 295.97,-597.19 302.97,-597.26"/>
<text xml:space="preserve" text-anchor="middle" x="348.9" y="-623.2" font-family="Monospace" font-size="14.00">100 times</text>
<text xml:space="preserve" text-anchor="middle" x="348.9" y="-606.7" font-family="Monospace" font-size="14.00">30.8833 msec</text>
</g>
<!-- __DivisibleBy3&#45;&gt;__DivisibleBy5 -->
<g id="edge9" class="edge">
<title>__DivisibleBy3&#45;&gt;__DivisibleBy5</title>
<path fill="none" stroke="black" d="M358.1,-447.31C324.11,-438.76 287.12,-429.04 284,-426.5 277.1,-420.9 267.99,-402.4 260.9,-386.11"/>
<polygon fill="black" stroke="black" points="264.29,-385.13 257.17,-377.28 257.84,-387.86 264.29,-385.13"/>
<text xml:space="preserve" text-anchor="middle" x="329.38" y="-413.2" font-family="Monospace" font-size="14.00">1365 times</text>
<text xml:space="preserve" text-anchor="middle" x="329.38" y="-396.7" font-family="Monospace" font-size="14.00">0.0001 msec</text>
</g>
<!-- __DivisibleBy3&#45;&gt;__DivisibleBy7 -->
<g id="edge10" class="edge">
<title>__DivisibleBy3&#45;&gt;__DivisibleBy7</title>
<path fill="none" stroke="black" d="M404.07,-444.23C393.33,-427.45 377.91,-400.85 370,-375.5 360.33,-344.54 357.12,-307.3 356.11,-282.17"/>
<polygon fill="black" stroke="black" points="359.62,-282.29 355.82,-272.4 352.62,-282.5 359.62,-282.29"/>
<text xml:space="preserve" text-anchor="middle" x="415.38" y="-360.7" font-family="Monospace" font-size="14.00">840 times</text>
<text xml:space="preserve" text-anchor="middle" x="415.38" y="-344.2" font-family="Monospace" font-size="14.00">0.0001 msec</text>
</g>
<!-- __DivisibleBy3&#45;&gt;__LoopEnd -->
<g id="edge11" class="edge">
<title>__DivisibleBy3&#45;&gt;__LoopEnd</title>
<path fill="none" stroke="black" d="M428.11,-444.07C439.14,-427.38 454.47,-401.03 460.75,-375.5 463.82,-363 456.44,-200.99 447.75,-183.5 446.09,-180.16 443.96,-176.99 441.56,-174.03"/>
<polygon fill="black" stroke="black" points="444.18,-171.7 434.75,-166.87 439.1,-176.53 444.18,-171.7"/>
<text xml:space="preserve" text-anchor="middle" x="505.94" y="-308.2" font-family="Monospace" font-size="14.00">4428 times</text>
<text xml:space="preserve" text-anchor="middle" x="505.94" y="-291.7" font-family="Monospace" font-size="14.00">0.0001 msec</text>
</g>
<!-- __DivisibleBy5&#45;&gt;__DivisibleBy7 -->
<g id="edge14" class="edge">
<title>__DivisibleBy5&#45;&gt;__DivisibleBy7</title>
<path fill="none" stroke="black" d="M244.94,-339.11C241.93,-324.23 240.38,-302.97 251,-288.5 256.12,-281.52 270.65,-275.12 287.33,-269.74"/>
<polygon fill="black" stroke="black" points="287.91,-273.22 296.47,-266.97 285.88,-266.52 287.91,-273.22"/>
<text xml:space="preserve" text-anchor="middle" x="296.38" y="-308.2" font-family="Monospace" font-size="14.00">525 times</text>
<text xml:space="preserve" text-anchor="middle" x="296.38" y="-291.7" font-family="Monospace" font-size="14.00">0.0001 msec</text>
</g>
<!-- __DivisibleBy5&#45;&gt;__LoopEnd -->
<g id="edge16" class="edge">
<title>__DivisibleBy5&#45;&gt;__LoopEnd</title>
<path fill="none" stroke="black" d="M232.53,-339.28C210.05,-314.66 176.13,-268.6 199,-234.5 234.8,-181.13 310.26,-160.86 360.23,-153.17"/>
<polygon fill="black" stroke="black" points="360.49,-156.67 369.91,-151.8 359.52,-149.74 360.49,-156.67"/>
<text xml:space="preserve" text-anchor="middle" x="244.38" y="-255.7" font-family="Monospace" font-size="14.00">3375 times</text>
<text xml:space="preserve" text-anchor="middle" x="244.38" y="-239.2" font-family="Monospace" font-size="14.00">0.0011 msec</text>
</g>
<!-- __DivisibleBy7&#45;&gt;__LoopEnd -->
<g id="edge15" class="edge">
<title>__DivisibleBy7&#45;&gt;__LoopEnd</title>
<path fill="none" stroke="black" d="M351.87,-234.19C349.57,-219.74 348.55,-199.07 357,-183.5 359.01,-179.8 361.59,-176.42 364.54,-173.35"/>
<polygon fill="black" stroke="black" points="366.66,-176.14 371.88,-166.91 362.05,-170.88 366.66,-176.14"/>
<text xml:space="preserve" text-anchor="middle" x="402.38" y="-203.2" font-family="Monospace" font-size="14.00">2842 times</text>
<text xml:space="preserve" text-anchor="middle" x="402.38" y="-186.7" font-family="Monospace" font-size="14.00">0.0003 msec</text>
</g>
<!-- __LoopEnd&#45;&gt;__LoopBegin -->
<g id="edge2" class="edge">
<title>__LoopEnd&#45;&gt;__LoopBegin</title>
<path fill="none" stroke="black" d="M446.03,-155.53C493.02,-166.79 567.75,-193.78 567.75,-251.5 567.75,-463.5 567.75,-463.5 567.75,-463.5 567.75,-516.51 518.48,-510.62 469.75,-531.5 433.67,-546.96 390.29,-555.75 356.38,-560.65"/>
<polygon fill="black" stroke="black" points="356.2,-557.15 346.76,-561.97 357.15,-564.08 356.2,-557.15"/>
<text xml:space="preserve" text-anchor="middle" x="613.12" y="-360.7" font-family="Monospace" font-size="14.00">19701 times</text>
<text xml:space="preserve" text-anchor="middle" x="613.12" y="-344.2" font-family="Monospace" font-size="14.00">0.0002 msec</text>
</g>
<!-- __LoopEnd&#45;&gt;___u0023__u003C_end_u003E_ -->
<g id="edge13" class="edge">
<title>__LoopEnd&#45;&gt;___u0023__u003C_end_u003E_</title>
<path fill="none" stroke="black" d="M371.67,-136.34C301.88,-117.23 151.35,-75.99 76.64,-55.52"/>
<polygon fill="black" stroke="black" points="77.79,-52.21 67.22,-52.94 75.94,-58.96 77.79,-52.21"/>
<text xml:space="preserve" text-anchor="middle" x="321.77" y="-98.2" font-family="Monospace" font-size="14.00">199 times</text>
<text xml:space="preserve" text-anchor="middle" x="321.77" y="-81.7" font-family="Monospace" font-size="14.00">0.0008 msec</text>
</g>
</g>
</svg>
